<svg width="1150" height="1150" viewBox="0 0 1150 1150" fill="none" xmlns="http://www.w3.org/2000/svg">
<path opacity="0.2" d="M526.4 378.4L310.9 256.5L309.9 368.2L525.4 490.1L526.4 378.4Z" fill="url(#paint0_linear_509_1513)"/>
<path opacity="0.15" d="M365.8 314.6L430.6 351.3L430.5 364.7L365.7 328L365.8 314.6Z" fill="white"/>
<path opacity="0.15" d="M365.6 341.5L503.6 419.6L503.5 433.2L365.5 355.1L365.6 341.5Z" fill="white"/>
<path d="M354.3 318.7C354.2 327.9 348.7 332.3 341.9 328.4C335.1 324.6 329.7 314 329.8 304.8C329.9 295.6 335.4 291.2 342.2 295.1C349 298.9 354.4 309.5 354.3 318.7Z" fill="#F2C94C"/>
<path opacity="0.2" d="M1016.4 878.8L801 756.9L800 868.6L1015.5 990.5L1016.4 878.8Z" fill="url(#paint1_linear_509_1513)"/>
<path opacity="0.15" d="M855.9 815L920.7 851.7L920.6 865.1L855.8 828.4L855.9 815Z" fill="white"/>
<path opacity="0.15" d="M855.7 841.9L993.7 920L993.6 933.6L855.6 855.5L855.7 841.9Z" fill="white"/>
<path d="M844.4 819.1C844.3 828.3 838.8 832.7 832 828.8C825.2 825 819.8 814.4 819.9 805.2C820 796 825.5 791.6 832.3 795.5C839.1 799.3 844.5 809.9 844.4 819.1Z" fill="#F2C94C"/>
<path opacity="0.1" d="M765.1 163.7C724.5 171.6 633.2 181.8 593.4 159.3C593.7 318.5 632.7 544.4 760.2 730.7C889.7 689.8 932.2 510.1 935.2 352.8C895.4 330.2 805.2 217.3 765.1 163.7Z" fill="url(#paint2_linear_509_1513)"/>
<path opacity="0.3" d="M715.5 196.7C674.9 204.6 583.6 214.8 543.8 192.3C544.1 351.5 583.1 577.4 710.6 763.7C840.1 722.8 882.6 543 885.6 385.8C845.8 363.2 755.6 250.3 715.5 196.7Z" fill="url(#paint3_linear_509_1513)"/>
<path opacity="0.4" d="M885.7 385.7C845.8 363.1 755.7 250.3 715.6 196.7L710.7 763.6C840.1 722.8 882.6 543 885.7 385.7Z" fill="url(#paint4_linear_509_1513)"/>
<path opacity="0.1" d="M499 497.5L699.7 608L699.8 976.7L499.1 866.3L499 497.5Z" fill="url(#paint5_linear_509_1513)"/>
<path opacity="0.2" d="M525 713L676.3 796.3L676.7 928.5L525.4 845.2L525 713Z" fill="url(#paint6_linear_509_1513)"/>
<path opacity="0.15" d="M527.7 625L597.7 663.5V677.1L527.7 638.6V625Z" fill="white"/>
<path opacity="0.15" d="M528 652L598 690.5V704.1L528 665.6V652Z" fill="white"/>
<path opacity="0.15" d="M527.9 678L660.7 751.1V764.7L527.9 691.6V678Z" fill="white"/>
<path opacity="0.2" d="M499 497.5L699.7 608L699.9 671.7L499.1 561.3L499 497.5Z" fill="url(#paint7_linear_509_1513)"/>
<path opacity="0.2" d="M549.2 557.4C549.2 567 543.5 571.7 536.5 567.8C529.5 563.9 523.7 553 523.7 543.3C523.7 533.7 529.4 529 536.4 532.9C543.5 536.8 549.2 547.8 549.2 557.4Z" fill="white"/>
<path d="M618.2 711.8L618 657L754.1 731.9L754.3 786.7L618.2 711.8Z" fill="#F2C94C"/>
<path opacity="0.3" d="M462.8 480.4L165.2 308.7L165.3 463.8L436.6 620.4L462.9 659.3L462.8 480.4Z" fill="url(#paint8_linear_509_1513)"/>
<path d="M133.5 369.1V327L245.8 391.8V433.9L133.5 369.1Z" fill="#F2994A"/>
<path opacity="0.15" d="M386.3 474L321.1 436.4V450L386.3 487.6V474Z" fill="white"/>
<path opacity="0.15" d="M386.3 501.3L260.6 428.8V442.4L386.3 514.9V501.3Z" fill="white"/>
<path opacity="0.15" d="M386.3 528.5L234 440.6V454.2L386.3 542.1V528.5Z" fill="white"/>
<path d="M402.3 497.5C402.3 510.3 409.9 525 419.2 530.4C428.5 535.8 436.1 529.8 436.1 517C436.1 504.2 428.5 489.5 419.2 484.1C409.9 478.7 402.3 484.7 402.3 497.5Z" fill="#F2994A"/>
<path opacity="0.2" d="M367 640.2C373 643.6 377.8 652 377.8 658.9V689.4L398 701C404 704.4 408.8 712.8 408.8 719.7C408.8 726.6 404 729.4 398 726L377.8 714.4V744.9C377.8 751.8 373 754.6 367 751.2C361 747.8 356.2 739.4 356.2 732.5V702L336 690.3C330 686.9 325.2 678.5 325.2 671.6C325.2 664.7 330 661.9 336 665.3L356.2 676.9V646.4C356.2 639.6 361 636.8 367 640.2Z" fill="url(#paint9_linear_509_1513)"/>
<defs>
<linearGradient id="paint0_linear_509_1513" x1="442.192" y1="330.765" x2="394.083" y2="415.785" gradientUnits="userSpaceOnUse">
<stop stop-color="white"/>
<stop offset="1" stop-color="white" stop-opacity="0"/>
</linearGradient>
<linearGradient id="paint1_linear_509_1513" x1="932.271" y1="831.173" x2="884.162" y2="916.193" gradientUnits="userSpaceOnUse">
<stop stop-color="white"/>
<stop offset="1" stop-color="white" stop-opacity="0"/>
</linearGradient>
<linearGradient id="paint2_linear_509_1513" x1="503.355" y1="215.119" x2="781.916" y2="464.429" gradientUnits="userSpaceOnUse">
<stop stop-color="white"/>
<stop offset="1" stop-color="white" stop-opacity="0"/>
</linearGradient>
<linearGradient id="paint3_linear_509_1513" x1="453.764" y1="248.092" x2="732.325" y2="497.403" gradientUnits="userSpaceOnUse">
<stop stop-color="white"/>
<stop offset="1" stop-color="white" stop-opacity="0"/>
</linearGradient>
<linearGradient id="paint4_linear_509_1513" x1="900.145" y1="444.359" x2="676.685" y2="487.127" gradientUnits="userSpaceOnUse">
<stop stop-color="white"/>
<stop offset="1" stop-color="white" stop-opacity="0"/>
</linearGradient>
<linearGradient id="paint5_linear_509_1513" x1="500.193" y1="640.885" x2="710.659" y2="845.133" gradientUnits="userSpaceOnUse">
<stop stop-color="white"/>
<stop offset="1" stop-color="white" stop-opacity="0"/>
</linearGradient>
<linearGradient id="paint6_linear_509_1513" x1="551.68" y1="715.913" x2="641.83" y2="908.152" gradientUnits="userSpaceOnUse">
<stop stop-color="white"/>
<stop offset="1" stop-color="white" stop-opacity="0"/>
</linearGradient>
<linearGradient id="paint7_linear_509_1513" x1="567.08" y1="497.316" x2="629.877" y2="666.934" gradientUnits="userSpaceOnUse">
<stop stop-color="white"/>
<stop offset="1" stop-color="white" stop-opacity="0"/>
</linearGradient>
<linearGradient id="paint8_linear_509_1513" x1="397.864" y1="418.294" x2="244.213" y2="538.598" gradientUnits="userSpaceOnUse">
<stop stop-color="white"/>
<stop offset="1" stop-color="white" stop-opacity="0"/>
</linearGradient>
<linearGradient id="paint9_linear_509_1513" x1="387.892" y1="679.225" x2="335.534" y2="720.545" gradientUnits="userSpaceOnUse">
<stop stop-color="white"/>
<stop offset="1" stop-color="white" stop-opacity="0"/>
</linearGradient>
</defs>
</svg>
