<svg xmlns="http://www.w3.org/2000/svg" version="1.1" xmlns:xlink="http://www.w3.org/1999/xlink"
  xmlns:svgjs="http://svgjs.dev/svgjs" width="1500" height="1500" viewBox="0 0 1500 1500">
  <rect width="1500" height="1500" fill="#ffffff"></rect>
  <g
    transform="matrix(0.6666666666666666,0,0,0.6666666666666666,249.39393939393938,656.4800657067906)">
    <svg viewBox="0 0 396 74" data-background-color="#1677ff" preserveAspectRatio="xMidYMid meet"
      height="280" width="1500" xmlns="http://www.w3.org/2000/svg"
      xmlns:xlink="http://www.w3.org/1999/xlink">
      <g id="tight-bounds" transform="matrix(1,0,0,1,0.2400000000000091,0.07397395195084755)">
        <svg viewBox="0 0 395.52 73.85205209609832" height="73.85205209609832" width="395.52">
          <g>
            <svg viewBox="0 0 478.78481056322795 89.39937493056249" height="73.85205209609832"
              width="395.52">
              <g>
                <rect width="5.833667070472543" height="77.6260853232091" x="410.79137976563493"
                  y="5.886644803676695" fill="#000000" opacity="1" stroke-width="0"
                  stroke="transparent" fill-opacity="1" class="rect-yte-0"
                  data-fill-palette-color="primary" rx="1%" id="yte-0" data-palette-color="#ffffff"></rect>
              </g>
              <g transform="matrix(1,0,0,1,0,12.35548524727745)">
                <svg viewBox="0 0 395.52 64.68840443600759" height="64.68840443600759"
                  width="395.52">
                  <g id="textblocktransform">
                    <svg viewBox="0 0 395.52 64.68840443600759" height="64.68840443600759"
                      width="395.52" id="textblock">
                      <g>
                        <svg viewBox="0 0 395.52 64.68840443600759" height="64.68840443600759"
                          width="395.52">
                          <g transform="matrix(1,0,0,1,0,0)">
                            <svg width="395.52" viewBox="5.28 -40.5 250.2 40.93"
                              height="64.68840443600759" data-palette-color="#ffffff">
                              <path
                                d="M9.78-28L9.78-22.38 12.05-26.33Q12.75-26.85 13.65-27.18 14.55-27.5 15.5-27.66 16.45-27.83 17.41-27.88 18.38-27.93 19.25-27.93L19.25-27.93Q21.13-27.93 22.45-27.76 23.78-27.6 24.69-27.35 25.6-27.1 26.15-26.84 26.7-26.58 27-26.38L27-26.38 28.25-19.25 24.5-18.75 23.25-23.2Q23.05-23.28 22.63-23.35 22.2-23.43 21.65-23.5 21.1-23.58 20.49-23.63 19.88-23.68 19.33-23.68L19.33-23.68Q17.63-23.68 16.18-23.29 14.73-22.9 13.53-22.23 12.33-21.55 11.39-20.65 10.45-19.75 9.78-18.75L9.78-18.75 9.78 0 5.28 0 5.28-27.5 9.78-28ZM59.75-4.5L60.25 0 55.25 0 55.25-4.05 52.9-1.25Q52.47-0.93 51.81-0.63 51.15-0.33 50.4-0.09 49.65 0.15 48.87 0.29 48.1 0.43 47.4 0.43L47.4 0.43Q45.52 0.43 43.62-0.16 41.72-0.75 40.2-1.89 38.67-3.03 37.71-4.71 36.75-6.4 36.75-8.6L36.75-8.6Q36.75-10.93 37.73-12.61 38.72-14.3 40.32-15.4 41.92-16.5 43.97-17.03 46.02-17.55 48.12-17.55L48.12-17.55Q50.5-17.55 52.25-17.29 54-17.03 55.25-16.55L55.25-16.55 55.25-17.63Q55.25-19.1 54.89-20.28 54.52-21.45 53.75-22.26 52.97-23.08 51.76-23.5 50.55-23.93 48.87-23.93L48.87-23.93Q47.3-23.93 46.16-23.74 45.02-23.55 44.05-23.33L44.05-23.33Q43.47-23.2 42.95-23.05 42.42-22.9 41.92-22.75L41.92-22.75 40.12-26.1Q41.17-26.58 42.62-27L42.62-27Q43.82-27.35 45.36-27.64 46.9-27.93 49.12-27.93L49.12-27.93Q52-27.93 54.02-27.15 56.05-26.38 57.32-24.98 58.6-23.58 59.17-21.61 59.75-19.65 59.75-17.25L59.75-17.25 59.75-4.5ZM55.25-6.85L55.25-13.13 53.75-13.33Q53.4-13.35 52.82-13.4 52.25-13.45 51.57-13.48L51.57-13.48 50.25-13.53Q49.6-13.55 49.12-13.55L49.12-13.55Q47.72-13.55 46.37-13.3 45.02-13.05 43.96-12.48 42.9-11.9 42.23-10.96 41.57-10.03 41.57-8.63L41.57-8.63Q41.57-7.5 42.07-6.58 42.57-5.65 43.41-4.98 44.25-4.3 45.34-3.94 46.42-3.58 47.6-3.58L47.6-3.58Q49.92-3.58 51.77-4.46 53.62-5.35 55.25-6.85L55.25-6.85ZM79.27-23.5L79.27-9.4Q79.27-7.75 79.46-6.64 79.65-5.53 80.01-4.84 80.37-4.15 80.91-3.86 81.45-3.58 82.15-3.58L82.15-3.58Q83.32-3.58 84.47-3.85 85.62-4.13 86.62-4.49 87.62-4.85 88.4-5.21 89.17-5.58 89.59-5.75L89.59-5.75 91.32-2.73Q91.09-2.53 90.23-2.01 89.37-1.5 88.06-0.95 86.75-0.4 85.09 0.01 83.45 0.43 81.65 0.43L81.65 0.43Q79.4 0.43 78.03-0.4 76.67-1.23 75.95-2.65 75.22-4.08 75-5.96 74.77-7.85 74.77-10L74.77-10 74.77-23.5 67.5-23.5 67.5-27.5 74.77-27.5 74.77-32.73 79.15-35.5 79.15-27.5 91.25-27.5 90.75-23.5 79.27-23.5ZM120.62-5.9L123.34-3.23Q122.57-2.43 121.64-1.75 120.72-1.07 119.59-0.59 118.47-0.1 117.11 0.16 115.74 0.43 114.07 0.43L114.07 0.43Q110.74 0.43 108.32-0.75 105.89-1.93 104.32-3.9 102.74-5.88 101.99-8.43 101.24-10.98 101.24-13.75L101.24-13.75Q101.24-15.53 101.61-17.26 101.97-19 102.66-20.58 103.34-22.15 104.38-23.5 105.42-24.85 106.78-25.83 108.14-26.8 109.81-27.36 111.47-27.93 113.44-27.93L113.44-27.93Q116.14-27.93 118.32-27.05 120.49-26.18 122.02-24.6 123.54-23.03 124.37-20.81 125.19-18.6 125.19-15.95L125.19-15.95Q125.19-15.18 125.14-14.25 125.09-13.33 124.99-12.5L124.99-12.5 105.99-12.5Q105.99-10.58 106.59-8.94 107.19-7.3 108.23-6.11 109.27-4.93 110.68-4.25 112.09-3.58 113.74-3.58L113.74-3.58Q115.34-3.58 116.48-3.81 117.62-4.05 118.41-4.4 119.19-4.75 119.72-5.15 120.24-5.55 120.62-5.9L120.62-5.9ZM109.62-16.25L120.79-16.25 120.79-17.35Q120.79-18.78 120.23-19.98 119.67-21.18 118.71-22.06 117.74-22.95 116.48-23.45 115.22-23.95 113.82-23.95L113.82-23.95Q112.14-23.95 110.88-23.41 109.62-22.88 108.72-22.04 107.82-21.2 107.27-20.2 106.72-19.2 106.47-18.3L106.47-18.3 104.99-15.45 109.62-16.25ZM139.74-21.13L139.74-4.28Q140.22-4.13 140.84-4 141.47-3.88 142.18-3.78 142.89-3.68 143.63-3.63 144.37-3.58 145.09-3.58L145.09-3.58Q146.62-3.58 147.85-4.08 149.09-4.58 150.06-5.41 151.04-6.25 151.77-7.39 152.49-8.53 152.95-9.79 153.42-11.05 153.64-12.4 153.87-13.75 153.87-15.03L153.87-15.03Q153.87-17.53 153.22-19.23 152.56-20.93 151.54-21.98 150.52-23.03 149.28-23.48 148.04-23.93 146.87-23.93L146.87-23.93Q144.89-23.93 143.1-23.16 141.31-22.4 139.74-21.13L139.74-21.13ZM135.24-0.88L135.24-35.5 134.74-40 139.74-40.5 139.74-24.35 141.87-26.63Q143.14-27.23 144.53-27.58 145.92-27.93 147.34-27.93L147.34-27.93Q149.39-27.93 151.44-27.08 153.49-26.23 155.1-24.56 156.72-22.9 157.73-20.48 158.74-18.05 158.74-14.9L158.74-14.9Q158.74-11.45 157.6-8.63 156.47-5.8 154.55-3.79 152.64-1.78 150.13-0.68 147.62 0.43 144.87 0.43L144.87 0.43Q143.29 0.43 141.8 0.31 140.31 0.2 139.04 0.01 137.77-0.18 136.78-0.41 135.79-0.65 135.24-0.88L135.24-0.88ZM185.61-5.9L188.34-3.23Q187.56-2.43 186.64-1.75 185.71-1.07 184.59-0.59 183.46-0.1 182.1 0.16 180.74 0.43 179.06 0.43L179.06 0.43Q175.74 0.43 173.31-0.75 170.89-1.93 169.31-3.9 167.74-5.88 166.99-8.43 166.24-10.98 166.24-13.75L166.24-13.75Q166.24-15.53 166.6-17.26 166.96-19 167.65-20.58 168.34-22.15 169.38-23.5 170.41-24.85 171.78-25.83 173.14-26.8 174.8-27.36 176.46-27.93 178.44-27.93L178.44-27.93Q181.14-27.93 183.31-27.05 185.49-26.18 187.01-24.6 188.54-23.03 189.36-20.81 190.19-18.6 190.19-15.95L190.19-15.95Q190.19-15.18 190.14-14.25 190.09-13.33 189.99-12.5L189.99-12.5 170.99-12.5Q170.99-10.58 171.59-8.94 172.19-7.3 173.23-6.11 174.26-4.93 175.68-4.25 177.09-3.58 178.74-3.58L178.74-3.58Q180.34-3.58 181.48-3.81 182.61-4.05 183.4-4.4 184.19-4.75 184.71-5.15 185.24-5.55 185.61-5.9L185.61-5.9ZM174.61-16.25L185.79-16.25 185.79-17.35Q185.79-18.78 185.23-19.98 184.66-21.18 183.7-22.06 182.74-22.95 181.48-23.45 180.21-23.95 178.81-23.95L178.81-23.95Q177.14-23.95 175.88-23.41 174.61-22.88 173.71-22.04 172.81-21.2 172.26-20.2 171.71-19.2 171.46-18.3L171.46-18.3 169.99-15.45 174.61-16.25ZM218.11-5.9L220.84-3.23Q220.06-2.43 219.14-1.75 218.21-1.07 217.09-0.59 215.96-0.1 214.6 0.16 213.24 0.43 211.56 0.43L211.56 0.43Q208.24 0.43 205.81-0.75 203.39-1.93 201.81-3.9 200.24-5.88 199.49-8.43 198.74-10.98 198.74-13.75L198.74-13.75Q198.74-15.53 199.1-17.26 199.46-19 200.15-20.58 200.84-22.15 201.87-23.5 202.91-24.85 204.27-25.83 205.64-26.8 207.3-27.36 208.96-27.93 210.94-27.93L210.94-27.93Q213.64-27.93 215.81-27.05 217.99-26.18 219.51-24.6 221.04-23.03 221.86-20.81 222.69-18.6 222.69-15.95L222.69-15.95Q222.69-15.18 222.64-14.25 222.59-13.33 222.49-12.5L222.49-12.5 203.49-12.5Q203.49-10.58 204.09-8.94 204.69-7.3 205.72-6.11 206.76-4.93 208.17-4.25 209.59-3.58 211.24-3.58L211.24-3.58Q212.84-3.58 213.97-3.81 215.11-4.05 215.9-4.4 216.69-4.75 217.21-5.15 217.74-5.55 218.11-5.9L218.11-5.9ZM207.11-16.25L218.29-16.25 218.29-17.35Q218.29-18.78 217.72-19.98 217.16-21.18 216.2-22.06 215.24-22.95 213.97-23.45 212.71-23.95 211.31-23.95L211.31-23.95Q209.64-23.95 208.37-23.41 207.11-22.88 206.21-22.04 205.31-21.2 204.76-20.2 204.21-19.2 203.96-18.3L203.96-18.3 202.49-15.45 207.11-16.25ZM240.91-4L254.98-4 255.48 0 232.51 0 232.01-1.25 244.58-20.65 249.38-24.5 243.26-23.5 234.18-23.5 233.68-27.5 253.28-27.5 253.78-26.28 241.56-7 236.78-3 240.91-4Z"
                                opacity="1" transform="matrix(1,0,0,1,0,0)" fill="#000000"
                                class="wordmark-text-0" data-fill-palette-color="primary"
                                id="text-0"></path>
                            </svg>
                          </g>
                        </svg>
                      </g>
                    </svg>
                  </g>
                </svg>
              </g>
              <g transform="matrix(1,0,0,1,431.8964266017424,0)">
                <svg viewBox="0 0 46.88838396148554 89.39937493056249" height="89.39937493056249"
                  width="46.88838396148554">
                  <g>
                    <svg xmlns="http://www.w3.org/2000/svg"
                      xmlns:xlink="http://www.w3.org/1999/xlink" version="1.1" x="0" y="0"
                      viewBox="26.865 5.869206514157341 47.272000000000006 90.13079348584266"
                      enable-background="new 0 0 100 100" xml:space="preserve"
                      height="89.39937493056249" width="46.88838396148554" class="icon-icon-0"
                      data-fill-palette-color="accent" id="icon-0"><path fill="none" d="M66.023 28.014C65.414 28.132 65.146 28.63 65.325 29.343 66.23 32.944 66.465 36.618 66.558 39.967 66.558 41.704 66.524 43.099 66.585 44.49 66.599 44.791 66.896 45.208 67.171 45.331 67.407 45.438 67.87 45.289 68.101 45.095 68.341 44.891 68.529 44.51 68.561 44.189 69.068 38.994 68.57 33.882 67.214 28.849 67.051 28.244 66.693 27.885 66.023 28.014"></path><path d="M73.977 56.66C73.756 50.773 72.929 44.973 71.648 39.225 71.336 37.825 71.413 36.342 71.174 34.921 70.782 32.582 70.371 30.238 69.797 27.938 69.176 25.448 66.304 24.442 64.147 25.842 63.967 25.96 63.795 26.09 63.58 26.243 62.677 24.612 61.215 23.952 59.36 23.811 59.408 22.997 59.428 22.217 59.505 21.441 59.807 18.371 60.252 15.308 60.403 12.231 60.542 9.442 59.447 6.878 56.612 6.046 56.485 6.009 55.546 5.783 54.407 5.905 51.172 7.002 50.593 9.719 50.163 12.621 49.243 18.823 49.389 25.045 49.71 31.275 49.719 31.438 49.731 31.601 49.73 31.763 49.729 31.8 49.673 31.837 49.583 31.943 49.269 31.281 48.977 30.652 48.672 30.028 46.089 24.741 43.288 19.583 39.574 14.982 37.45 12.35 33.136 12.603 31.626 15.455 30.606 17.383 30.95 19.339 32.086 21.051 36.166 27.195 39.551 33.7 42.453 40.468 42.525 40.636 42.567 40.819 42.602 40.93 40.95 40.93 39.32 40.902 37.692 40.937 35.363 40.986 33.051 41.161 30.85 42.029 28.968 42.772 27.477 43.903 26.865 45.936V47.905C27.049 48.323 27.204 48.756 27.421 49.156 28.458 51.079 30.58 51.981 32.804 51.426 36.909 50.4 40.638 51.183 44.056 53.652 45.839 54.94 46.476 56.744 46.532 58.83 46.853 70.967 44.554 82.555 39.269 93.519 38.661 94.78 38.817 95.289 39.996 95.999H40.653C41.037 95.529 41.533 95.113 41.791 94.582 47.282 83.214 49.643 71.188 49.264 58.599 49.181 55.816 48.271 53.4 45.997 51.663 41.797 48.458 37.125 47.485 31.987 48.778 31.032 49.018 30.153 48.55 29.774 47.673 29.401 46.808 29.673 45.796 30.522 45.317 31.253 44.904 32.028 44.509 32.834 44.296 35.86 43.494 38.952 43.512 42.035 43.828 45.748 44.207 49.177 45.376 52.102 47.792 52.871 48.428 53.773 48.423 54.276 47.79 54.803 47.124 54.647 46.325 53.848 45.652 51.744 43.877 49.324 42.704 46.698 41.95 46.109 41.781 45.809 41.492 45.584 40.926 42.676 33.591 39.036 26.634 34.723 20.024 34.333 19.426 34.059 18.713 33.895 18.016 33.582 16.685 34.595 15.764 35.956 15.96 37.07 16.121 37.628 16.908 38.21 17.703 43.211 24.549 46.94 32.06 49.853 39.998 50.268 41.127 50.733 41.357 52.022 41.044 53.044 40.795 53.366 40.275 53.235 39.176 52.334 31.563 51.834 23.932 52.508 16.274 52.679 14.321 53.019 12.372 53.443 10.455 53.833 8.685 55.538 8.091 56.724 9.199 57.555 9.975 57.739 11.047 57.663 12.067 57.359 16.125 56.963 20.176 56.578 24.227 56.551 24.518 56.396 24.847 56.197 25.062 55.413 25.906 54.967 26.882 55.035 28.03 55.089 28.955 55.246 29.875 55.367 30.796 56.045 35.968 56.771 41.133 57.382 46.314 57.613 48.274 58.552 49.71 60.322 50.221 62.129 50.742 63.867 50.106 64.99 48.51 65.176 48.247 65.346 47.974 65.517 47.716 67.619 48.467 67.962 48.418 70.262 47.049 70.288 47.091 70.329 47.131 70.336 47.175 71.352 54.101 71.63 61.053 70.972 68.025 70.139 76.849 67.923 85.328 64.432 93.473 63.861 94.8 63.975 95.219 65.108 96H65.765C66.164 95.516 66.706 95.09 66.944 94.536 71.248 84.507 73.703 74.057 74.004 63.125 74.01 62.921 74.09 62.719 74.137 62.516V58.248C74.081 57.719 73.996 57.19 73.977 56.66M62.973 46C62.958 46.951 62.337 47.616 61.499 47.61 60.633 47.604 60.279 47.127 60.152 46.116 59.502 40.972 58.816 35.834 58.142 30.695 58.025 29.802 57.831 28.912 57.807 28.017 57.798 27.65 58.05 27.157 58.345 26.922 59.357 26.113 60.911 26.771 61.169 28.039 62.025 32.269 62.755 36.517 62.952 40.838 62.987 41.601 62.957 42.367 62.957 43.131H62.974C62.975 44.088 62.986 45.045 62.973 46M68.562 44.188C68.53 44.509 68.342 44.891 68.102 45.094 67.872 45.289 67.409 45.437 67.172 45.33 66.897 45.206 66.6 44.79 66.586 44.489 66.524 43.098 66.559 41.702 66.559 39.966 66.465 36.618 66.231 32.943 65.326 29.342 65.147 28.629 65.415 28.131 66.024 28.013 66.694 27.884 67.051 28.243 67.215 28.847 68.57 33.881 69.068 38.993 68.562 44.188" fill="#000000" data-fill-palette-color="accent"></path></svg>
                  </g>
                </svg>
              </g>
            </svg>
          </g>
          <defs></defs>
        </svg>
        <rect width="395.52" height="73.85205209609832" fill="none" stroke="none"
          visibility="hidden"></rect>
      </g>
    </svg>
  </g>
</svg>