<svg width="1800" height="520" viewBox="0 0 2214 394" fill="none" xmlns="http://www.w3.org/2000/svg">
  <path d="M174.391 382.471L417.431 205.156L349.27 242.494L349.304 242.851L349.102 242.587L347.967 243.209L348.041 243.326L174.391 382.471Z" fill="white" />
  <path d="M335.593 242.274L160.908 223.761L151.919 389.454L335.593 242.274Z" fill="white" />
  <path d="M9.14807 132.354L143.755 393.428L153.019 222.562L9.14807 132.354Z" fill="white" />
  <path d="M403.802 163.966L341.545 76.4587L334.89 102.033L406.903 168.875L403.802 163.966Z" fill="white" />
  <path d="M416.422 192.384L337.158 117.345L348.041 229.834L416.422 192.384Z" fill="white" />
  <path d="M258.46 106.838L337.158 209.634L327.091 106.143L258.46 106.838Z" fill="white" />
  <path d="M250.886 113.386L163.375 211.958L340.065 230.696L250.886 113.386Z" fill="white" />
  <path d="M245.231 105.336L151.328 76.8257L161.249 202.132L245.231 105.336Z" fill="white" />
  <path d="M153.308 209.09L143.34 82.561L22.3723 127.103L153.308 209.09Z" fill="white" />
  <path d="M31.6327 114.34L142.068 71.5748L103.818 40.1333L31.6327 114.34Z" fill="white" />
  <path d="M0.176514 71.0463L7.1639 126.349L83.5378 45.7855L0.176514 71.0463Z" fill="white" />
  <path d="M115.447 14.3783L26.9486 50.5078L105.725 26.6368L115.447 14.3783Z" fill="white" />
  <path d="M151.661 64.5672L252.503 95.5731L325.901 94.1589L332.474 68.9176L286.232 40.0649L200.926 13.8008L132.273 11.1191L114.231 33.8646L151.661 64.5672Z" fill="white" />
  <path d="M795.33 0.262482C874.708 0.262482 920.329 71.8027 920.329 130.692C920.329 192.986 874.711 262.094 795.332 262.094H704.55V381.328C704.55 386.681 701.817 389.597 697.251 389.597H660.299C655.737 389.597 653 386.681 653 381.328V8.04965C653 3.66966 655.737 0.262769 660.299 0.262769H795.327L795.33 0.262482ZM791.233 209.04C841.414 209.04 869.242 169.619 869.242 130.686C869.242 92.2382 841.414 53.3053 791.233 53.3053H704.558V209.04H791.233ZM993.316 59.1543C978.266 59.1543 965.948 46.5007 965.948 29.9553C965.948 13.8952 978.266 0.756357 993.316 0.756357C1008.37 0.756357 1020.69 13.8966 1020.69 29.9553C1020.69 46.5022 1008.37 59.1543 993.316 59.1543ZM1011.11 148.689H975.98C971.418 148.689 968.681 152.101 968.681 156.476V370.126C968.681 381.32 975.067 389.589 986.016 389.589H1011.56C1015.67 389.589 1018.41 386.673 1018.41 381.32V156.477C1018.41 152.102 1015.21 148.69 1011.11 148.69L1011.11 148.689ZM1263.38 345.792C1266.12 350.172 1266.11 353.579 1262.92 356.99C1242.84 377.43 1216.39 393 1184.45 393C1121.5 393 1067.67 338.984 1067.67 269.876C1067.67 200.282 1121.5 145.287 1184.45 145.287C1216.38 145.287 1242.39 159.4 1261.09 179.353C1264.28 182.764 1264.28 186.658 1261.55 190.546L1244.21 213.907C1241.48 217.8 1238.74 218.287 1233.26 214.393C1221.86 202.226 1206.35 194.926 1185.82 194.926C1142.49 194.926 1115.57 230.939 1115.57 269.387C1115.57 307.346 1142.49 343.847 1186.28 343.847C1206.81 343.847 1221.41 335.573 1234.64 321.46C1239.65 317.08 1242.85 318.54 1246.05 322.433L1263.38 345.792ZM1501.97 378.885C1496.04 331.191 1495.59 286.909 1497.41 240.192C1499.7 182.765 1470.04 145.778 1414.39 145.778C1377.9 145.778 1340.03 157.459 1317.68 170.599C1313.57 173.032 1310.83 177.407 1312.66 181.787L1324.06 210.014C1325.89 214.881 1329.08 216.341 1335.01 213.421C1364.21 199.307 1387.93 192.494 1411.2 192.494C1435.83 192.494 1450.43 202.714 1449.52 230.454C1365.12 246.022 1300.8 262.082 1300.8 325.35C1300.8 367.691 1329.54 392.02 1376.07 392.02C1414.85 392.02 1434.92 379.371 1454.08 363.798C1456.35 378.398 1460.46 389.592 1469.58 389.592H1496.95C1501.06 389.592 1502.42 384.238 1501.97 378.885H1501.97ZM1384.74 350.176C1366.03 350.176 1351.43 343.363 1351.43 324.869C1351.43 295.182 1402.52 285.448 1448.6 275.229C1448.15 291.289 1448.15 312.703 1448.6 326.816C1433.55 338.983 1408 350.176 1384.74 350.176V350.176ZM1548.96 354.555L1564.46 328.28C1567.65 322.922 1570.39 321.462 1574.95 323.895C1575.41 324.868 1603.24 342.389 1633.8 342.389C1660.26 342.389 1669.38 331.195 1669.38 320.002C1669.38 303.455 1652.5 297.62 1621.94 289.347C1578.6 277.18 1549.86 253.334 1549.86 216.345C1549.86 179.844 1579.06 145.778 1633.8 145.778C1667.1 145.778 1689.91 157.945 1708.16 169.139C1712.72 172.059 1715 176.439 1712.26 180.332L1695.38 208.073C1693.1 211.966 1689.45 213.426 1685.35 211.966C1673.49 205.644 1654.33 196.392 1633.8 196.392C1608.25 196.392 1601.41 210.019 1601.41 218.293C1601.41 232.406 1620.57 239.219 1643.83 246.028C1684.44 257.708 1725.04 278.635 1725.04 320.977C1725.04 361.856 1688.55 392.999 1633.8 392.999C1596.4 392.999 1562.64 373.537 1551.23 363.803C1548.04 361.856 1547.13 356.99 1548.95 354.556L1548.96 354.555ZM1767.93 354.555L1783.43 328.28C1786.63 322.922 1789.36 321.462 1793.93 323.895C1794.38 324.868 1822.21 342.389 1852.77 342.389C1879.23 342.389 1888.35 331.195 1888.35 320.002C1888.35 303.455 1871.48 297.62 1840.91 289.347C1797.57 277.18 1768.83 253.334 1768.83 216.345C1768.83 179.844 1798.03 145.778 1852.77 145.778C1886.07 145.778 1908.88 157.945 1927.13 169.139C1931.69 172.059 1933.97 176.439 1931.23 180.332L1914.36 208.073C1912.07 211.966 1908.42 213.426 1904.32 211.966C1892.46 205.644 1873.3 196.392 1852.77 196.392C1827.22 196.392 1820.38 210.019 1820.38 218.293C1820.38 232.406 1839.54 239.219 1862.8 246.028C1903.41 257.708 1944.01 278.635 1944.01 320.977C1944.01 361.856 1907.52 392.999 1852.77 392.999C1815.37 392.999 1781.61 373.537 1770.2 363.803C1767.01 361.856 1766.1 356.99 1767.92 354.556L1767.93 354.555ZM2096.38 392.998C2160.25 392.998 2213.17 338.982 2213.17 269.389C2213.17 198.334 2160.25 145.288 2096.38 145.288C2032.52 145.288 1979.6 198.337 1979.6 269.389C1979.6 338.982 2032.52 392.998 2096.38 392.998ZM2096.38 343.363C2057.15 343.363 2027.96 308.809 2027.96 269.876C2027.96 229.481 2057.15 194.927 2096.38 194.927C2135.62 194.927 2164.81 229.481 2164.81 269.876C2164.81 308.809 2135.62 343.363 2096.38 343.363Z" fill="white" />
</svg>